<svg xmlns="http://www.w3.org/2000/svg" viewBox="0 0 100 100">
  <g transform="translate(100, -5) scale(-1, 1)">
    <path fill="#1a1a1a" d="M42.271,30.159c-7.701,0-14.695,1.856-19.819,4.894c-5.125,3.037-8.409,7.312-8.409,12.178c0,4.836,3.284,9.139,8.409,12.178c4.247,2.502,9.768,4.162,15.884,4.668l1.047,3.516c0.396,1.35,1.671,2.25,3.115,2.25H55.89c1.415,0,2.746-0.9,3.114-2.25v-0.029l1.67-5.623c3.087-0.703,6.116-1.52,8.976-2.477c2.747-0.898,5.323-1.939,7.56-3.064l7.503,5.146c0.481,0.309,1.246-0.084,1.246-0.646V33.562c0-0.253-0.142-0.478-0.34-0.647c-0.368-0.281-0.623-0.197-0.906,0l-7.503,5.091c-2.236-1.097-4.813-2.109-7.56-3.038C60.73,31.987,50,30.159,42.271,30.159z"/>
  </g>
</svg>
